# xmcd
#
# Track frame offsets: 
#        150
#        11921
#        27299
#        39264
#        55918
#        67902
#        84952
#        100102
#        120262
#        150395
#        164546
#        181413
#        195290
#        212821
#        225629
#        241187
#        259136
#        272818
#        287379
#        304061
#
# Disc length: 4259 seconds
#
# Revision: 2
# Processed by: cddbd v1.5.2PL0 Copyright (c) Steve Scherf et al.
# Submitted via: ExactAudioCopy v0.95b2
#
DISCID=fa10a114
DTITLE=Wilson Pickett - Take Your Pleasure Where You Find It
DYEAR=1998
DGENRE=R&B
TTITLE0=Take Your Pleasure Where You Find It
TTITLE1=Mr. Magic Man
TTITLE2=Soft Soul Boogie Woogie
TTITLE3=Mighty Mouth
TTITLE4=What Good Is A Lie
TTITLE5=I Was Too Nice
TTITLE6=Take A Closer Look At The Woman You're With
TTITLE7=Join Me And Let's Be Free
TTITLE8=You're The One
TTITLE9=I Keep Walking Straght Ahead
TTITLE10=If You Need Me (1973)
TTITLE11=Higher Consciousness
TTITLE12=Smokin' In The United Nations
TTITLE13=Love Is Beautiful
TTITLE14=Take A Look
TTITLE15=Sin Was The Blame
TTITLE16=Take The Pollution Out Of Your Throat
TTITLE17=Is Your Love Life Better
TTITLE18=Baby Man
TTITLE19=I Can't Let My True Love Slip Away
EXTD=
EXTT0=
EXTT1=
EXTT2=
EXTT3=
EXTT4=
EXTT5=
EXTT6=
EXTT7=
EXTT8=
EXTT9=
EXTT10=
EXTT11=
EXTT12=
EXTT13=
EXTT14=
EXTT15=
EXTT16=
EXTT17=
EXTT18=
EXTT19=
PLAYORDER=
